<?xml version="1.0" encoding="UTF-8"?>
<svg id="_레이어_1" data-name="레이어 1" xmlns="http://www.w3.org/2000/svg" viewBox="0 0 100 100">
  <defs>
    <style>
      .cls-1, .cls-2 {
        stroke: #222;
      }

      .cls-1, .cls-2, .cls-3 {
        fill: none;
        stroke-linejoin: round;
        stroke-width: 2px;
      }

      .cls-2 {
        stroke-linecap: round;
      }

      .cls-3 {
        stroke: #ffdf2c;
      }
    </style>
  </defs>
  <g id="_드레스" data-name="드레스">
    <path class="cls-3" d="M15.33,77.62c-.38,1.74-.74,3.57-1.04,5.53,16.06,6.67,55.35,6.67,71.41,0-.3-1.96-.65-3.79-1.03-5.53-16.29,6.13-53.03,6.13-69.33,0Z"/>
    <polyline class="cls-3" points="31.71 50.07 37.28 50.07 42.84 50.07"/>
    <polyline class="cls-3" points="31.71 46.72 37.28 46.72 42.84 46.72"/>
    <polyline class="cls-3" points="57.23 50.07 62.79 50.07 68.35 50.07"/>
    <polyline class="cls-3" points="57.23 46.72 62.79 46.72 68.35 46.72"/>
    <path class="cls-1" d="M68.4,50.07h-.13l1-8.02v.26c6.07-.3,8.71-3.75,8.71-3.75-.24-.35-10.55-15.58-10.78-15.92v.05c-1.41-2.21-4.58-2.12-6.93-2.03-1.8,8.71-18.77,8.71-20.57,0-2.34-.09-5.5-.18-6.92,2.01v-.03c-.46.68-10.36,15.3-10.78,15.92,0,0,2.65,3.45,8.7,3.75l1,7.75c-.25-.03-13.09,5.5-17.41,33.08,16.06,6.67,55.35,6.67,71.41,0-4.2-27.49-17.3-33.08-17.3-33.08Z"/>
    <path class="cls-1" d="M36.46,20.94c.18,5.57,5.62,9.69,13.56,9.69s13.35-4.11,13.53-9.68"/>
    <path class="cls-2" d="M22.25,85.55s.73-12.07,7.77-19.81"/>
    <path class="cls-2" d="M68.28,87.12s-2.19-12.9-5.48-18.99"/>
    <path class="cls-2" d="M78.85,84.33s-3.44-18.67-10.57-25.59"/>
    <g>
      <rect class="cls-3" x="48.04" y="46.51" width="3.91" height="3.91" rx=".76" ry=".76"/>
      <path class="cls-3" d="M42.84,45.64v5.64c0,.58.63.95,1.14.66l3.69-2.13c.23-.14.38-.39.38-.66v-1.38c0-.27-.14-.52-.38-.66l-3.69-2.13c-.51-.29-1.14.07-1.14.66Z"/>
      <path class="cls-3" d="M56.03,44.98l-3.69,2.13c-.23.14-.38.39-.38.66v1.38c0,.27.14.52.38.66l3.69,2.13c.51.29,1.14-.07,1.14-.66v-5.64c0-.58-.63-.95-1.14-.66Z"/>
    </g>
  </g>
</svg>