<?xml version="1.0" encoding="UTF-8"?>
<svg id="_레이어_1" data-name="레이어 1" xmlns="http://www.w3.org/2000/svg" viewBox="0 0 100 100">
  <defs>
    <style>
      .cls-1 {
        stroke: #ffdf2c;
      }

      .cls-1, .cls-2, .cls-3 {
        fill: none;
        stroke-linejoin: round;
        stroke-width: 2px;
      }

      .cls-1, .cls-3 {
        stroke-linecap: round;
      }

      .cls-2, .cls-3 {
        stroke: #222;
      }
    </style>
  </defs>
  <g id="_인형의집" data-name="인형의집">
    <line class="cls-3" x1="50" y1="53.56" x2="50" y2="66.47"/>
    <line class="cls-3" x1="38.52" y1="60.23" x2="61.48" y2="60.23"/>
    <g>
      <path class="cls-1" d="M15.69,39.22c0,2.01,1.71,3.64,3.81,3.64s3.81-1.63,3.81-3.64"/>
      <path class="cls-1" d="M23.31,39.22c0,2.01,1.71,3.64,3.81,3.64s3.81-1.63,3.81-3.64"/>
      <path class="cls-1" d="M30.94,39.22c0,2.01,1.71,3.64,3.81,3.64s3.81-1.63,3.81-3.64"/>
      <path class="cls-1" d="M38.56,39.22c0,2.01,1.71,3.64,3.81,3.64s3.81-1.63,3.81-3.64"/>
      <path class="cls-1" d="M46.19,39.22c0,2.01,1.71,3.64,3.81,3.64s3.81-1.63,3.81-3.64"/>
      <path class="cls-1" d="M53.81,39.22c0,2.01,1.71,3.64,3.81,3.64s3.81-1.63,3.81-3.64"/>
      <path class="cls-1" d="M61.44,39.22c0,2.01,1.71,3.64,3.81,3.64s3.81-1.63,3.81-3.64"/>
      <path class="cls-1" d="M69.06,39.22c0,2.01,1.71,3.64,3.81,3.64s3.81-1.63,3.81-3.64"/>
      <path class="cls-1" d="M76.69,39.22c0,2.01,1.71,3.64,3.81,3.64s3.81-1.63,3.81-3.64"/>
    </g>
    <path class="cls-2" d="M19.86,46.95h60.29v37.03c0,1.1-.9,2-2,2H21.86c-1.1,0-2-.9-2-2v-37.03h0Z"/>
    <polygon class="cls-2" points="82.78 31.5 50.07 31.5 49.93 31.5 17.22 31.5 13.98 46.95 49.93 46.95 50.07 46.95 86.02 46.95 82.78 31.5"/>
    <path class="cls-2" d="M50,26.79c3.68,0,6.86,1.92,8.43,4.71h5.82c0-5.58-6.38-10.11-14.25-10.11s-14.25,4.52-14.25,10.11h5.82c1.56-2.79,4.75-4.71,8.43-4.71Z"/>
    <line class="cls-3" x1="19.86" y1="82.88" x2="80.14" y2="82.88"/>
    <line class="cls-3" x1="49.99" y1="81.61" x2="49.99" y2="76.36"/>
    <line class="cls-3" x1="47.29" y1="76.36" x2="63.68" y2="76.36"/>
    <line class="cls-3" x1="61.11" y1="76.96" x2="61.11" y2="82.21"/>
    <g>
      <line class="cls-3" x1="36.38" y1="71.53" x2="36.38" y2="81.61"/>
      <line class="cls-3" x1="36.38" y1="77.62" x2="42.13" y2="77.62"/>
      <line class="cls-3" x1="42.13" y1="82.88" x2="42.13" y2="77.62"/>
    </g>
    <rect class="cls-3" x="38.52" y="53.56" width="22.95" height="13.35"/>
  </g>
</svg>