<?xml version="1.0" encoding="UTF-8"?>
<svg id="_레이어_1" data-name="레이어 1" xmlns="http://www.w3.org/2000/svg" viewBox="0 0 100 100">
  <defs>
    <style>
      .cls-1 {
        fill: none;
        stroke: #222;
        stroke-linecap: round;
        stroke-linejoin: round;
        stroke-width: 2px;
      }

      .cls-2 {
        fill: #ffdf2c;
      }

      .cls-3 {
        fill: #222;
      }
    </style>
  </defs>
  <g id="_테라스" data-name="테라스">
    <path class="cls-1" d="M56.75,84.99v-16.29c0-1.3-1.02-2.44-2.59-3.13h-19.58c-1.56.69-2.59,1.83-2.59,3.13v16.29"/>
    <g>
      <path class="cls-2" d="M72.51,49.79v-26.34c0-.55-.45-1-1-1s-1,.45-1,1v29.1c.25-1.18,1-2.16,2-2.76Z"/>
      <path class="cls-2" d="M70.51,72.57v2.34c0,.55.45,1,1,1s1-.45,1-1v-2.34h-2Z"/>
    </g>
    <rect class="cls-1" x="26.75" y="61.81" width="35.25" height="3.75" rx="1.87" ry="1.87"/>
    <g>
      <path class="cls-1" d="M18.34,68.07v-14.62c0-2.36-1.91-4.27-4.27-4.27h-.68v23.39h14.29v-2.64c0-1.03-.83-1.86-1.86-1.86h-7.48Z"/>
      <line class="cls-1" x1="13.39" y1="72.57" x2="13.39" y2="84.99"/>
      <line class="cls-1" x1="27.68" y1="72.57" x2="27.68" y2="84.99"/>
    </g>
    <g>
      <path class="cls-1" d="M70.41,68.07v-14.62c0-2.36,1.91-4.27,4.27-4.27h.68v23.39h-.53s-4.42,0-4.42,0h-9.34v-2.64c0-1.03.83-1.86,1.86-1.86h7.48Z"/>
      <line class="cls-1" x1="75.36" y1="72.57" x2="75.36" y2="84.99"/>
      <line class="cls-1" x1="61.07" y1="72.57" x2="61.07" y2="84.99"/>
    </g>
    <path class="cls-3" d="M86.43,21.78h-36.43c-.55,0-1,.45-1,1v39.03h2V23.78h34.43v50.42h-34.43v-8.64h-2v9.64c0,.55.45,1,1,1h36.43c.55,0,1-.45,1-1V22.78c0-.55-.45-1-1-1Z"/>
  </g>
</svg>