<?xml version="1.0" encoding="UTF-8"?>
<svg id="_레이어_1" data-name="레이어 1" xmlns="http://www.w3.org/2000/svg" viewBox="0 0 100 100">
  <defs>
    <style>
      .cls-1 {
        stroke: #ffdf2c;
      }

      .cls-1, .cls-2 {
        fill: none;
        stroke-linecap: round;
        stroke-linejoin: round;
        stroke-width: 2px;
      }

      .cls-2 {
        stroke: #222;
      }

      .cls-3 {
        fill: #222;
      }
    </style>
  </defs>
  <g id="_주방놀이시설" data-name="주방놀이시설">
    <g>
      <path class="cls-3" d="M38.58,51.17h-2.13l1.01,1.75h-12.9l1.01-1.75h-4.36c-.55,0-1,.45-1,1s.45,1,1,1h21.14c-1.45-.3-2.75-1.01-3.77-2Z"/>
      <path class="cls-3" d="M54.27,51.17h-5.07c-1.02.99-2.32,1.7-3.77,2h8.84c.55,0,1-.45,1-1s-.45-1-1-1Z"/>
    </g>
    <path class="cls-2" d="M20.83,25.45h32.16c1.1,0,2,.9,2,2v59.55H22.83c-1.1,0-2-.9-2-2V25.45h0Z"/>
    <path class="cls-2" d="M54.99,58.45h29.99c1.1,0,2,.9,2,2v24.55c0,1.1-.9,2-2,2h-29.99v-28.55Z"/>
    <path class="cls-2" d="M11.44,25.45h9.38v30.32h-9.38c-1.1,0-2-.9-2-2v-26.32c0-1.1.9-2,2-2Z"/>
    <line class="cls-2" x1="54.65" y1="55.79" x2="20.83" y2="55.79"/>
    <line class="cls-1" x1="82.46" y1="70.25" x2="82.46" y2="75.2"/>
    <line class="cls-1" x1="50.34" y1="68.45" x2="50.34" y2="73.4"/>
    <polygon class="cls-2" points="70.04 58.45 67.64 53.09 76.64 53.09 85.34 53.09 82.94 58.45 76.64 58.45 70.04 58.45"/>
    <path class="cls-3" d="M65.99,39.99c3.56,0,5.12,2.78,6,4.92l-1.85.76c-1.06-2.58-2.29-3.68-4.16-3.68-.13,0-.26,0-.39.01-3.09.23-3.42,3.84-3.42,5.38v10.02h-2v-10.02c0-4.38,1.97-7.14,5.28-7.38.19-.01.37-.02.55-.02M65.99,37.99h0c-.23,0-.46,0-.7.03-4.39.32-7.13,3.91-7.13,9.37v10.02c0,1.1.9,2,2,2h2c1.1,0,2-.9,2-2v-10.02c0-.98.15-3.29,1.57-3.39.08,0,.17,0,.24,0h0c.55,0,1.31,0,2.31,2.44.2.49.59.88,1.08,1.09.25.1.51.15.77.15s.52-.05.76-.15l1.85-.76c1.02-.42,1.51-1.59,1.09-2.61-.63-1.52-2.53-6.16-7.84-6.16h0Z"/>
    <circle class="cls-1" cx="44.76" cy="46.97" r="6.36"/>
    <polygon class="cls-1" points="37.08 52.93 24.17 52.93 30.63 41.75 37.08 52.93"/>
  </g>
</svg>