<?xml version="1.0" encoding="UTF-8"?>
<svg id="_레이어_1" data-name="레이어 1" xmlns="http://www.w3.org/2000/svg" viewBox="0 0 100 100">
  <defs>
    <style>
      .cls-1, .cls-2 {
        stroke: #222;
      }

      .cls-1, .cls-2, .cls-3 {
        fill: none;
        stroke-linejoin: round;
        stroke-width: 2px;
      }

      .cls-2 {
        stroke-linecap: round;
      }

      .cls-3 {
        stroke: #ffdf2c;
      }
    </style>
  </defs>
  <g id="_정글짐" data-name="정글짐">
    <line class="cls-1" x1="20.04" y1="20" x2="63.97" y2="20"/>
    <line class="cls-1" x1="20.04" y1="34.48" x2="63.97" y2="34.48"/>
    <line class="cls-1" x1="20.04" y1="48.97" x2="63.97" y2="48.97"/>
    <line class="cls-3" x1="20.04" y1="63.45" x2="63.97" y2="63.45"/>
    <line class="cls-3" x1="10" y1="73.68" x2="51.52" y2="73.68"/>
    <line class="cls-1" x1="51.52" y1="77.93" x2="63.97" y2="77.93"/>
    <rect class="cls-1" x="10" y="71.7" width="41.52" height="9.98" rx="2" ry="2"/>
    <g>
      <path class="cls-1" d="M11.49,81.67h5.07v6.36c0,1.3-1.06,2.36-2.36,2.36h-.34c-1.3,0-2.36-1.06-2.36-2.36v-6.36h0Z"/>
      <path class="cls-1" d="M44.96,81.67h5.07v6.36c0,1.3-1.06,2.36-2.36,2.36h-.34c-1.3,0-2.36-1.06-2.36-2.36v-6.36h0Z"/>
    </g>
    <line class="cls-2" x1="20.04" y1="70.34" x2="20.04" y2="12.07"/>
    <line class="cls-2" x1="63.97" y1="90.04" x2="63.97" y2="12.07"/>
    <line class="cls-2" x1="49.33" y1="71.7" x2="49.33" y2="12.07"/>
    <line class="cls-2" x1="34.68" y1="71.7" x2="34.68" y2="12.07"/>
    <polyline class="cls-2" points="63.97 63.45 78.41 88.39 90 88.39 90 80.11 85.09 80.11 63.97 43.66"/>
  </g>
</svg>